<svg width="90" height="90" viewBox="0 0 90 90" fill="none" xmlns="http://www.w3.org/2000/svg">
<path d="M45 0C20.147 0 0 20.147 0 45C0 69.854 20.147 90 45 90C69.854 90 90 69.854 90 45C90 20.147 69.854 0 45 0ZM22.599 59.509H20.557V63.693H19.502V59.509H17.46V33.194H19.502V24.304H20.557V33.194H22.599V59.509ZM32.707 49.399H30.665V59.249H29.61V49.399H27.568V43.3H29.61V28.009H30.665V43.301H32.707V49.399ZM42.79 54.28H40.748V58.592H39.693V54.28H37.65V39.467H39.693V36.331H40.748V39.467H42.79V54.28ZM53.038 41.384H50.994V66.958H49.939V41.384H47.896V32.845H49.939V29.447H50.994V32.845H53.038V41.384ZM62.917 64.04H60.875V66.306H59.82V64.04H57.775V39.467H59.82V23.042H60.875V39.467H62.917V64.04ZM72.969 45.915H70.925V52.451H69.87V45.915H67.827V29.011H69.87V25.918H70.925V29.011H72.969V45.915Z" fill="currentColor"/>
</svg>